<?xml version="1.0" encoding="UTF-8"?>
<!DOCTYPE svg PUBLIC "-//W3C//DTD SVG 1.1//EN" "http://www.w3.org/Graphics/SVG/1.1/DTD/svg11.dtd">
<!-- Creator: CorelDRAW 2021 (64 Bit) -->
<svg xmlns="http://www.w3.org/2000/svg" xml:space="preserve" width="1500px" height="456px" version="1.1" shape-rendering="geometricPrecision" text-rendering="geometricPrecision" image-rendering="optimizeQuality" fill-rule="evenodd" clip-rule="evenodd"
viewBox="0 0 1500 456"
 xmlns:xlink="http://www.w3.org/1999/xlink"
 xmlns:xodm="http://www.corel.com/coreldraw/odm/2003">
 <defs>
    <linearGradient id="id0" gradientUnits="userSpaceOnUse" x1="797" y1="258" x2="1500" y2="258">
     <stop offset="0" stop-opacity="1" stop-color="#EB9E1A"/>
     <stop offset="0.501961" stop-opacity="1" stop-color="#DB3B63"/>
     <stop offset="1" stop-opacity="1" stop-color="#BD2B29"/>
    </linearGradient>
    <linearGradient id="id1" gradientUnits="userSpaceOnUse" x1="401" y1="259" x2="610" y2="259">
     <stop offset="0" stop-opacity="1" stop-color="#E85621"/>
     <stop offset="1" stop-opacity="1" stop-color="#EB861B"/>
    </linearGradient>
 </defs>
 <g id="Camada_x0020_1">
  <metadata id="CorelCorpID_0Corel-Layer"/>
  <g id="_2970433820640">
   <path fill="url(#id0)" fill-rule="nonzero" d="M797 425l60 0 0 -184 23 184 32 0 24 -184 0 184 60 0 0 -332 -76 0 -23 148 -23 -148 -76 0 0 332zm563 0l92 0c27,0 47,-21 47,-47l0 -90c0,-18 -11,-32 -26,-39 15,-7 26,-22 26,-40l0 -68c0,-27 -21,-47 -47,-47l-92 0 0 332zm60 -50l0 -102 10 0c6,0 10,4 10,10l0 82c0,6 -4,10 -10,10l-10 0zm0 -152l0 -80 10 0c6,0 10,4 10,10l0 60c0,6 -4,10 -10,10l-10 0zm-180 202l45 0c27,0 47,-21 47,-47l0 -285 -60 0 0 272c0,6 -4,10 -10,10 -6,0 -10,-4 -10,-10l0 -272 -60 0 0 285c0,27 21,47 47,47zm-216 0l60 0 0 -141 20 0 0 141 60 0 0 -332 -60 0 0 141 -20 0 0 -141 -60 0 0 332z"/>
   <path fill="url(#id1)" fill-rule="nonzero" d="M401 425l60 0 0 -142 47 0 0 -50 -47 0 0 -90 66 0 0 -50 -126 0 0 332zm150 0l60 0 0 -267 -60 0 0 267zm0 -287l60 0 0 -45 -60 0 0 45z"/>
   <path fill="#E85621" fill-rule="nonzero" d="M167 91c-92,0 -167,75 -167,167 0,92 75,167 167,167 92,0 167,-75 167,-167 0,-92 -75,-167 -167,-167zm74 171c-1,4 -4,7 -7,9l-89 51c-2,1 -5,2 -8,2 -9,0 -15,-7 -15,-15l0 -103c0,-3 1,-5 2,-8 4,-7 14,-10 21,-6l89 51c2,1 4,3 6,6 2,4 3,8 2,12zm0 0z"/>
   <path fill="#D95E00" d="M662 0c-38,112 -25,193 -11,253 14,61 27,98 3,172l4 1 1 -2 0 0 1 -3 0 0 0 0 4 1 0 0 0 0 -1 3 0 0 -1 2 5 2c1,-5 3,-9 4,-14l76 18c-2,6 -3,13 -5,19l4 1 1 -4 0 0 1 -3 4 1 -1 3 -1 4 4 1c31,-97 12,-168 -1,-226 -13,-57 -23,-104 8,-197l-4 -1 0 0 -4 -1 0 0 -5 -2c0,1 -1,2 -1,4l-74 -25c0,-1 1,-3 1,-4l-5 -2 -1 2 -4 -1 1 -2 -3 -1zm2 7l4 1 -1 3 0 0 -1 4 -4 -1 1 -4 0 0 1 -3zm-3 11l4 1 -1 3 0 0 -1 5 -4 -1 1 -5 0 0 1 -3zm7 8l75 23c-6,21 -10,39 -12,56l-76 -13c3,-20 7,-42 14,-66zm-10 4l4 1 0 2 -1 5 0 0 0 1 -4 -1 0 -1 1 -5 0 0 0 -2zm94 5l4 1 0 1 0 0 -1 4 -1 2 -4 -1 1 -2 0 0 1 -5 0 0 0 0 0 -1zm-97 7l4 1 0 0 0 0 -1 5 0 0 -1 2 -4 -1 1 -2 0 0 1 -5 0 0 0 0zm93 5l4 1 -1 3 0 0 -1 4 -4 -1 1 -4 0 0 1 -3zm-96 7l4 1 -1 4 -1 4 -4 -1 1 -4 0 0 1 -4zm93 4l4 1 0 1 0 0 -1 4 0 0 -1 3 -4 -1 1 -3 1 -4 0 0 0 -1zm-95 7l4 1 0 2 -1 5 0 1 -4 -1 0 -1 0 0 1 -5 0 0 0 -2zm92 4l4 1 0 2 0 0 -1 4 0 0 0 2 -4 -1 0 -2 0 0 1 -4 0 0 0 -2zm-94 7l4 1 -1 4 0 0 -1 4 -4 -1 1 -4 0 0 1 -4zm91 4l4 1 -1 2 0 0 -1 4 0 1 -4 -1 0 -1 0 0 1 -4 0 0 1 -3zm-93 7l4 1 0 1 0 0 -1 4 0 0 0 2 -4 0 0 -2 0 0 1 -4 0 0 0 -1zm91 4l4 1 0 3 0 0 -1 4 0 0 0 1 -4 -1 0 -1 0 0 1 -4 0 0 0 -3zm-92 7l4 0 0 3 0 0 0 4 0 0 0 1 -4 0 0 -1 0 0 0 -4 0 0 0 -3zm91 4l4 1 0 2 0 0 0 4 0 0 0 2 -4 0 0 -2 0 0 0 -4 0 0 0 -2zm-92 7l4 0 0 3 0 0 0 4 0 0 0 0 -4 0 0 0 0 0 0 -4 0 0 0 -3zm8 3l77 9c-1,18 -1,35 1,51l-77 4c-2,-20 -2,-41 0,-64l0 0zm83 1l4 0 0 1 0 0 0 3 0 0 0 3 -4 0 0 -3 0 0 0 -3 0 0 0 -1zm-91 8l4 0 0 4 0 0 0 4 0 0 -4 0 0 0 0 -4 0 0 0 -4zm90 4l4 0 0 3 0 0 0 3 0 0 0 1 -4 0 0 -1 0 0 0 -3 0 0 0 -3zm-91 8l4 0 0 4 0 0 0 4 -4 0 0 -4 0 0 0 -4zm90 4l4 0 0 1 0 0 0 3 0 3 -4 0 0 -3 0 -3 0 0 0 -1zm-90 8l4 0 0 7 0 0 0 1 -4 0 0 -1 0 0 0 -7zm94 4l0 5 0 0 0 3 -4 0 0 -3 0 0 0 -5 4 0zm-90 8l0 2 0 0 0 5 -4 0 0 -5 0 0 0 -2 4 0zm91 4l0 5 0 0 0 2 -4 0 0 -2 0 0 0 -5 4 0zm-90 7l0 4 0 0 0 3 -4 0 0 -3 0 0 0 -4 4 0zm91 4l1 5 0 0 0 2 -4 0 0 -3 0 0 -1 -5 4 0zm-90 8l1 6 0 0 0 2 -4 0 0 -2 0 0 -1 -6 4 0zm92 4l1 5 0 0 0 3 -4 1 0 -3 0 0 -1 -5 4 -1zm-8 6c2,15 6,29 9,44 1,4 2,8 3,12l-76 18c-1,-4 -2,-8 -3,-12 -4,-16 -7,-34 -10,-53l77 -9zm-83 2l0 1 0 0 1 6 0 0 0 1 -4 1 0 -1 0 0 0 0 -1 -6 0 0 0 -1 4 0zm93 4l1 4 0 0 1 3 -4 1 -1 -3 0 0 -1 -4 4 -1zm-91 8l0 2 0 0 1 6 -4 1 -1 -6 0 0 0 -2 4 -1zm93 4l1 3 0 0 1 4 -4 1 -1 -4 0 0 0 0 -1 -3 4 -1zm-91 8l0 2 0 0 1 5 -4 1 -1 -5 0 0 0 -2 4 -1zm94 4l1 3 1 5 -4 1 -1 -5 0 0 0 0 -1 -3 4 -1zm-92 8l0 3 0 0 1 5 -4 1 -1 -5 0 0 0 0 0 -3 4 -1 0 0zm94 4l2 7 0 1 -4 1 0 -1 -2 -7 4 -1zm-92 8l1 2 1 5 -4 1 -1 -5 -1 -2 4 -1zm95 3l1 6 0 0 0 1 -4 1 0 -1 0 0 -2 -6 4 -1zm-92 8l2 8 -2 0 -2 0 0 0 -2 -8 4 -1zm95 3l1 5 0 0 0 2 -4 1 0 -2 -1 -5 4 -1zm-92 8l2 8 -4 1 0 -1 0 0 -2 -7 4 -1zm95 3l1 5 0 0 1 3 -4 1 -1 -3 0 0 -1 -5 4 -1zm-9 3c4,19 8,40 9,62l-77 7c-1,-18 -5,-35 -9,-54l77 -14zm-84 5l1 6 0 1 -4 1 0 -1 -1 -6 4 -1zm95 4l1 5 0 0 1 3 -4 1 -1 -3 0 0 -1 -5 4 -1zm-92 8l0 0 0 0 0 0 1 5 0 0 0 2 -4 1 0 -2 0 0 -1 -5 0 0 0 0 4 -1zm95 4l1 4 0 0 1 3 -4 1 -1 -3 0 0 -1 -4 4 -1zm-92 8l1 4 0 0 1 3 -4 1 -1 -3 0 0 -1 -4 4 -1zm94 4l1 5 0 0 0 3 -4 0 0 -3 0 0 -1 -5 4 -1zm-92 8l1 4 0 0 1 4 -4 1 -1 -4 0 0 -1 -4 4 -1zm93 4l1 5 0 0 0 2 -4 0 0 -2 0 0 -1 -5 4 0zm-92 8l0 3 0 0 1 5 -4 0 -1 -5 0 0 0 -3 4 -1zm93 4l0 6 0 0 0 1 -4 0 0 -1 0 0 0 -6 4 0zm-91 8l0 2 0 0 0 0 0 5 0 0 0 0 -4 0 0 0 0 0 0 -5 0 0 0 -2 4 0zm92 4l0 1 0 0 0 7 -4 0 0 -6 0 0 0 -1 4 0zm-91 8l0 1 0 0 0 6 0 1 -4 0 0 -1 0 -5 0 0 0 -1 4 0zm87 4l4 0 0 3 0 0 0 3 0 0 0 1 -4 0 0 -1 0 0 0 -3 0 0 0 -3zm-5 5c0,20 -1,42 -6,65l-77 -13c4,-19 6,-35 5,-51l77 -1zm-83 3l0 1 0 6 0 0 0 1 -4 0 0 -1 0 0 0 -6 0 -1 4 0zm87 4l4 0 0 2 0 4 0 0 0 2 -4 0 0 -2 0 0 0 -4 0 0 0 -2zm-91 8l4 0 0 1 0 0 0 3 0 0 0 3 0 0 0 1 -4 0 0 -1 0 0 0 -3 0 0 0 -3 0 0 0 -1zm91 4l4 0 0 2 0 0 0 4 0 0 0 2 -4 0 0 -2 0 0 0 -4 0 0 0 -2zm-92 8l4 0 0 1 0 0 0 3 0 0 0 3 0 0 0 1 -4 -1 0 -1 0 0 0 -3 0 0 0 -3 0 0 0 -1zm91 4l4 0 0 1 0 0 0 4 0 0 0 2 -4 0 0 -2 0 0 0 -4 0 0 0 -1zm-92 7l4 1 0 2 0 0 -1 3 0 0 -1 3 -4 -1 1 -3 0 0 1 -3 0 0 0 -2zm91 4l4 1 0 2 0 0 -1 4 0 2 -4 -1 0 -2 0 0 1 -4 0 0 0 -2zm-93 7l4 1 -1 3 0 0 -1 3 0 0 0 1 -4 -1 0 -1 0 0 1 -3 0 0 1 -3zm91 4l4 1 0 3 0 0 -1 4 0 0 0 1 -4 -1 0 -1 0 0 1 -4 0 0 0 -3zm-94 7l4 1 0 1 0 0 -1 3 0 0 -1 3 -4 -1 1 -3 0 0 1 -3 0 0 0 -1zm92 4l4 1 -1 4 0 0 -1 3 -4 -1 1 -3 0 0 1 -4zm-2 11l4 1 0 2 -1 5 0 1 -4 -1 0 -1 0 0 1 -5 0 0 0 -2zm-3 11l4 1 -1 4 0 0 -1 3 -4 -1 1 -3 1 -4zm0 0z"/>
  </g>
 </g>
</svg>
